<?xml version="1.0" encoding="UTF-8" standalone="no"?>
<!-- Created with Inkscape (http://www.inkscape.org/) -->

<svg
   xmlns:dc="http://purl.org/dc/elements/1.1/"
   xmlns:cc="http://creativecommons.org/ns#"
   xmlns:rdf="http://www.w3.org/1999/02/22-rdf-syntax-ns#"
   xmlns:svg="http://www.w3.org/2000/svg"
   xmlns="http://www.w3.org/2000/svg"
   xmlns:sodipodi="http://sodipodi.sourceforge.net/DTD/sodipodi-0.dtd"
   xmlns:inkscape="http://www.inkscape.org/namespaces/inkscape"
   width="32"
   height="32"
   viewBox="0 0 8.4666667 8.4666667"
   version="1.1"
   id="svg8"
   inkscape:version="0.92.4 (5da689c313, 2019-01-14)"
   sodipodi:docname="BiscitLogo.svg">
  <defs
     id="defs2" />
  <sodipodi:namedview
     id="base"
     pagecolor="#ffffff"
     bordercolor="#666666"
     borderopacity="1.0"
     inkscape:pageopacity="0.0"
     inkscape:pageshadow="2"
     inkscape:zoom="3.3915067"
     inkscape:cx="35.235077"
     inkscape:cy="-30.830692"
     inkscape:document-units="mm"
     inkscape:current-layer="layer1"
     showgrid="false"
     inkscape:window-width="1920"
     inkscape:window-height="1000"
     inkscape:window-x="-11"
     inkscape:window-y="-11"
     inkscape:window-maximized="1"
     units="px" />
  <metadata
     id="metadata5">
    <rdf:RDF>
      <cc:Work
         rdf:about="">
        <dc:format>image/svg+xml</dc:format>
        <dc:type
           rdf:resource="http://purl.org/dc/dcmitype/StillImage" />
        <dc:title></dc:title>
      </cc:Work>
    </rdf:RDF>
  </metadata>
  <g
     inkscape:label="Layer 1"
     inkscape:groupmode="layer"
     id="layer1"
     transform="translate(0,-288.53333)">
    <path
       style="fill:#000000;fill-opacity:1;stroke:none;stroke-width:0.46415383;stroke-miterlimit:4;stroke-dasharray:none;stroke-opacity:1"
       d="m 4.1746561,296.5785 a 3.6746819,3.6746819 0 0 0 3.6746637,-3.67466 3.6746819,3.6746819 0 0 0 -0.1513248,-1.03594 1.7530594,1.7530594 0 0 1 -0.7252186,0.1594 1.7530594,1.7530594 0 0 1 -1.7530833,-1.75302 1.7530594,1.7530594 0 0 1 0.2057782,-0.82223 3.6746819,3.6746819 0 0 0 -1.2508152,-0.22287 3.6746819,3.6746819 0 0 0 -3.67473098,3.67466 3.6746819,3.6746819 0 0 0 3.67473098,3.67466 z m 0.5393474,-1.14621 a 1.0113805,1.0113805 0 0 1 -1.0113787,-1.01138 1.0113805,1.0113805 0 0 1 1.0113787,-1.01138 1.0113805,1.0113805 0 0 1 1.0113789,1.01138 1.0113805,1.0113805 0 0 1 -1.0113789,1.01138 z m -2.3935417,-1.68564 a 0.53940302,0.53940302 0 0 1 -0.5394157,-0.53941 0.53940302,0.53940302 0 0 1 0.5394157,-0.53941 0.53940302,0.53940302 0 0 1 0.5393474,0.53941 0.53940302,0.53940302 0 0 1 -0.5393474,0.53941 z"
       id="path914"
       inkscape:connector-curvature="0"
       inkscape:export-filename="C:\Users\osman\path914.png"
       inkscape:export-xdpi="96.199997"
       inkscape:export-ydpi="96.199997" />
  </g>
</svg>
